<svg xmlns="http://www.w3.org/2000/svg" width="40" height="40" viewBox="0 0 40 40">
  <defs>
    <style>
      .cls-1 {
        fill: #fff;
        fill-rule: evenodd;
      }
      .cls-2 {
        fill: #ffa507;
        stroke: #fff;
        stroke-linejoin: round;
        stroke-width: 4px;
      }
    </style>
  </defs>
  <circle class="cls-2" cx="20" cy="20" r="16"/>
  <path class="cls-1" d="M25.261,26.02L22.2,17.729v-2.44a1.474,1.474,0,0,0,.993-1.389V13.5a1.476,1.476,0,0,0-1.478-1.471h-4.37A1.476,1.476,0,0,0,15.867,13.5v0.4a1.473,1.473,0,0,0,.994,1.388v2.44L13.8,26a1.471,1.471,0,0,0,1.369,2.026h8.713a1.476,1.476,0,0,0,1.226-.65A1.453,1.453,0,0,0,25.261,26.02Zm-8.1-1.88a0.5,0.5,0,1,1,.5.5A0.5,0.5,0,0,1,17.159,24.14Zm3.246,0.437a0.866,0.866,0,1,1-.87.865A0.868,0.868,0,0,1,20.406,24.577Zm-0.741-1.9a0.627,0.627,0,1,1,.628.624A0.627,0.627,0,0,1,19.665,22.679ZM17.838,17.9V14.884l0-.486H17.345a0.5,0.5,0,0,1-.5-0.5V13.5a0.5,0.5,0,0,1,.5-0.5h4.37a0.5,0.5,0,0,1,.5.5v0.4a0.5,0.5,0,0,1-.5.5H21.222v3.5l0.857,2.321c-0.011.011-.022,0.018-0.033,0.03-0.638.66-5.3,0.736-5.3,0.736H16.7Zm1.352,1.874a0.678,0.678,0,1,0-.681-0.678A0.68,0.68,0,0,0,19.19,19.776Z" transform="translate(0.5 -1)"/>
</svg>
