<svg xmlns="http://www.w3.org/2000/svg" width="40" height="40" viewBox="0 0 40 40">
  <defs>
    <style>
      .cls-1 {
        fill: #fff;
        fill-rule: evenodd;
      }
      .cls-2 {
        fill: #4e73db;
        stroke: #fff;
        stroke-linejoin: round;
        stroke-width: 4px;
      }
    </style>
  </defs>
  <circle class="cls-2" cx="20.953" cy="20.969" r="16.016"/>
  <path class="cls-1" d="M27.436,14.533a0.163,0.163,0,0,0-.174-0.017L11.584,22.466a0.16,0.16,0,0,0-.088.156,0.162,0.162,0,0,0,.112.14l4.962,1.565a0.161,0.161,0,0,0,.157-0.034l7.547-6.4-5.8,6.8a0.159,0.159,0,0,0,.076.256l5.824,1.759A0.16,0.16,0,0,0,24.5,26.7a0.162,0.162,0,0,0,.077-0.1l2.911-11.9A0.161,0.161,0,0,0,27.436,14.533ZM20.257,26.694L18.648,26.2a0.161,0.161,0,0,0-.209.153v3.012a0.161,0.161,0,0,0,.117.154,0.176,0.176,0,0,0,.045.006,0.164,0.164,0,0,0,.137-0.075l1.609-2.522a0.156,0.156,0,0,0,.015-0.14A0.161,0.161,0,0,0,20.257,26.694Z" transform="translate(-0.5 -1)"/>
</svg>
