<svg xmlns="http://www.w3.org/2000/svg" width="40" height="40" viewBox="0 0 40 40">
  <defs>
    <style>
      .cls-1 {
        fill: #fff;
        fill-rule: evenodd;
      }
      .cls-2 {
        fill: #ff4e50;
        stroke: #fff;
        stroke-linejoin: round;
        stroke-width: 4px;
      }
    </style>
  </defs>
  <circle class="cls-2" cx="20" cy="20" r="16"/>
  <path class="cls-1" x="20" y="20" d="M26.663,16H20.987l2.239-2.688a0.588,0.588,0,0,0,.1.02,0.667,0.667,0,1,0-.667-0.667,0.658,0.658,0,0,0,.046.226L20.12,16H19.876l-2.588-3.109a0.664,0.664,0,1,0-.622.441,0.57,0.57,0,0,0,.1-0.02L19.008,16H13.332A1.334,1.334,0,0,0,12,17.334v9.338A1.333,1.333,0,0,0,13.332,28H26.663A1.333,1.333,0,0,0,28,26.672V17.334A1.334,1.334,0,0,0,26.663,16ZM24,25.337a1.334,1.334,0,0,1-1.333,1.334h-8a1.334,1.334,0,0,1-1.333-1.334V18.668a1.334,1.334,0,0,1,1.333-1.334h8A1.333,1.333,0,0,1,24,18.668v6.669Zm1.964-5.961a0.952,0.952,0,1,1,.951-0.953A0.953,0.953,0,0,1,25.961,19.377Z" transform="translate(0 0)"/>
</svg>
