<svg xmlns="http://www.w3.org/2000/svg" width="40" height="40" viewBox="0 0 40 40">
  <defs>
    <style>
      .cls-1 {
        fill: #fff;
        fill-rule: evenodd;
      }
      .cls-2 {
        fill: #1cd7ad;
        stroke: #fff;
        stroke-linejoin: round;
        stroke-width: 4px;
      }
    </style>
  </defs>
  <circle class="cls-2" cx="20" cy="20" r="16"/>
  <path class="cls-1" d="M26.3,24.3c-0.6-.043-1.29-0.076-2.033-0.1a6.854,6.854,0,0,0,1.671-2.25,1.58,1.58,0,0,0,1.964.239,1.633,1.633,0,0,0,.536-2.23,1.6,1.6,0,0,0-1.758-.723c0.029-.289.048-0.582,0.048-0.881a0.562,0.562,0,0,0-.559-0.565H15.829a0.562,0.562,0,0,0-.559.565A7.743,7.743,0,0,0,17.728,24.2c-0.742.025-1.429,0.059-2.03,0.1-2.091.148-2.7,0.289-2.7,0.936s0.608,0.788,2.7.936c1.418,0.1,3.3.155,5.3,0.155s3.883-.055,5.3-0.155c2.091-.148,2.7-0.289,2.7-0.936S28.392,24.449,26.3,24.3ZM26.568,20s0.009,0,.013-0.005a0.93,0.93,0,0,1,1.285.316,0.947,0.947,0,0,1,.11.715,0.936,0.936,0,0,1-.422.584,0.928,0.928,0,0,1-1.284-.315,0.3,0.3,0,0,0-.04-0.043A8.387,8.387,0,0,0,26.568,20ZM16.408,18.92h9.183C25.371,21.964,23.4,24.355,21,24.355S16.628,21.964,16.408,18.92Zm3.555-2.284,0.038,0a0.453,0.453,0,0,0,.422-0.607,3.208,3.208,0,0,1,.123-2.3,2.938,2.938,0,0,0,.572-2.369,1.076,1.076,0,0,0-.665-0.675,0.452,0.452,0,0,0-.274.862,0.221,0.221,0,0,1,.1.126,2.064,2.064,0,0,1-.484,1.564l-0.022.037c-0.045.075-.093,0.153-0.146,0.234-0.681,1.056-.885,1.887-0.607,2.47A1.207,1.207,0,0,0,19.963,16.635Zm2.384,0.084h0.031a0.425,0.425,0,0,0,.4-0.57,1.818,1.818,0,0,1,.063-1.286,1.907,1.907,0,0,0,.363-1.583,0.809,0.809,0,0,0-.5-0.505,0.425,0.425,0,0,0-.49.612,0.419,0.419,0,0,0,.249.2,0.323,0.323,0,0,1-.046-0.016,1.167,1.167,0,0,1-.281.827l-0.026.043c-0.024.04-.05,0.082-0.078,0.125a1.75,1.75,0,0,0-.382,1.661A0.883,0.883,0,0,0,22.348,16.719Z" transform="translate(-1 -1)"/>
</svg>
